<svg xmlns="http://www.w3.org/2000/svg" xmlns:xlink="http://www.w3.org/1999/xlink" width="1740" height="906.69"><rect width="1740" height="906.69" rx="5" ry="5" class="a"/><svg y="0%" x="0%"><circle cx="20" cy="20" r="6" fill="#ff5f58"/><circle cx="40" cy="20" r="6" fill="#ffbd2e"/><circle cx="60" cy="20" r="6" fill="#18c132"/></svg><svg height="846.69" viewBox="0 0 170 84.669" width="1700" x="15" xmlns="http://www.w3.org/2000/svg" xmlns:xlink="http://www.w3.org/1999/xlink" y="50"><style>@keyframes p{0%{transform:translateX(0)}.2%{transform:translateX(-170px)}.5%{transform:translateX(-340px)}.8%{transform:translateX(-1360px)}.9%{transform:translateX(-1700px)}99.9%{transform:translateX(-1870px)}to{transform:translateX(-2040px)}}.a{fill:#282d35}.f,.g{fill:#b9c0cb;white-space:pre}.g{fill:silver}.h,.i,.j,.k,.l,.m{fill:#81c042;white-space:pre}.i,.j,.k,.l,.m{fill:#d0d0d0}.j,.k,.l,.m{fill:#48f}.k,.l,.m{fill:#4a4}.l,.m{fill:#b0d0b0}.m{fill:#ddd}</style><g font-family="Monaco,Consolas,Menlo,'Bitstream Vera Sans Mono','Powerline Symbols',monospace" font-size="1.67"><defs><symbol id="1"><text y="1.67" class="f">Linux</text><text x="6.012" y="1.67" class="f">localhost.localdomain</text><text x="28.056" y="1.67" class="f">5.7.8-200.fc32.x86_64</text><text x="50.1" y="1.67" class="f">#1</text><text x="53.106" y="1.67" class="f">SMP</text><text x="57.114" y="1.67" class="f">Thu</text><text x="61.122" y="1.67" class="f">Jul</text><text x="65.13" y="1.67" class="f">9</text><text x="67.134" y="1.67" class="f">14:34:51</text><text x="76.152" y="1.67" class="f">UTC</text><text x="80.16" y="1.67" class="f">2020</text><text x="85.17" y="1.67" class="f">x86_64</text><text x="92.184" y="1.67" class="f">x86_64</text><text x="99.198" y="1.67" class="f">x86_64</text><text x="106.212" y="1.67" class="f">GNU/Linux</text></symbol><symbol id="2"><text x="1.002" y="1.67" class="f">Intel(R)</text><text x="10.02" y="1.67" class="f">Core(TM)</text><text x="19.038" y="1.67" class="f">i5-8265U</text><text x="28.056" y="1.67" class="f">CPU</text><text x="32.064" y="1.67" class="f">@</text><text x="34.068" y="1.67" class="f">1.60GHz</text></symbol><symbol id="3"><text y="1.67" class="f">__</text><text x="4.008" y="1.67" class="f">____</text><text x="10.02" y="1.67" class="f">__</text><text x="14.028" y="1.67" class="f">_____</text><text x="22.044" y="1.67" class="f">___</text><text x="27.054" y="1.67" class="f">__</text><text x="30.06" y="1.67" class="f">____</text><text x="36.072" y="1.67" class="f">______</text></symbol><symbol id="4"><text x="1.002" y="1.67" class="f">--/</text><text x="5.01" y="1.67" class="f">__</text><text x="8.016" y="1.67" class="f">\/</text><text x="11.022" y="1.67" class="f">/</text><text x="13.026" y="1.67" class="f">/</text><text x="15.03" y="1.67" class="f">/</text><text x="17.034" y="1.67" class="f">_</text><text x="19.038" y="1.67" class="f">|</text><text x="21.042" y="1.67" class="f">/</text><text x="23.046" y="1.67" class="f">_</text><text x="25.05" y="1.67" class="f">\/</text><text x="28.056" y="1.67" class="f">//_/</text><text x="33.066" y="1.67" class="f">/</text><text x="35.07" y="1.67" class="f">/</text><text x="37.074" y="1.67" class="f">/</text><text x="39.078" y="1.67" class="f">__/</text></symbol><symbol id="5"><text x="1.002" y="1.67" class="f">-/</text><text x="4.008" y="1.67" class="f">/_/</text><text x="8.016" y="1.67" class="f">/</text><text x="10.02" y="1.67" class="f">/_/</text><text x="14.028" y="1.67" class="f">/</text><text x="16.032" y="1.67" class="f">__</text><text x="19.038" y="1.67" class="f">|/</text><text x="22.044" y="1.67" class="f">,</text><text x="24.048" y="1.67" class="f">_/</text><text x="27.054" y="1.67" class="f">,&lt;</text><text x="30.06" y="1.67" class="f">/</text><text x="32.064" y="1.67" class="f">/_/</text><text x="36.072" y="1.67" class="f">/\</text><text x="39.078" y="1.67" class="f">\</text></symbol><symbol id="6"><text y="1.67" class="f">--\___\_\____/_/</text><text x="17.034" y="1.67" class="f">|_/_/|_/_/|_|\____/___/</text></symbol><symbol id="7"><text y="1.67" class="g">14:54:52</text><text x="9.018" y="1.67" class="h">INFO</text><text x="15.03" y="1.67" class="i">[</text><text x="16.032" y="1.67" class="j">or.mo.dr.cluster</text><text x="32.064" y="1.67" class="i">]</text><text x="34.068" y="1.67" class="i">(</text><text x="35.07" y="1.67" class="k">main</text><text x="39.078" y="1.67" class="i">)</text><text x="41.082" y="1.67" class="l">Cluster</text><text x="49.098" y="1.67" class="l">created</text><text x="57.114" y="1.67" class="l">with</text><text x="62.124" y="1.67" class="l">settings</text><text x="71.142" y="1.67" class="l">{hosts=[localhost:27017],</text><text x="97.194" y="1.67" class="l">mode=SINGLE,</text><text x="110.22" y="1.67" class="l">requiredClusterType=UNKNOWN,</text><text x="139.278" y="1.67" class="l">serverSelectionTimeout=&apos;30000</text><text x="169.338" y="1.67" class="l">m</text></symbol><symbol id="8"><text y="1.67" class="l">s&apos;}</text></symbol><symbol id="9"><text y="1.67" class="g">14:54:52</text><text x="9.018" y="1.67" class="h">INFO</text><text x="15.03" y="1.67" class="i">[</text><text x="16.032" y="1.67" class="j">or.mo.dr.connection</text><text x="35.07" y="1.67" class="i">]</text><text x="37.074" y="1.67" class="i">(</text><text x="38.076" y="1.67" class="k">cluster-ClusterId{value=&apos;5f10946c68a2c70e4eb54dca&apos;,</text><text x="90.18" y="1.67" class="k">description=&apos;null&apos;}-localhost:27017</text><text x="125.25" y="1.67" class="i">)</text><text x="127.254" y="1.67" class="l">Opened</text><text x="134.268" y="1.67" class="l">connection</text><text x="145.29" y="1.67" class="l">[connectionId{localValue:</text></symbol><symbol id="10"><text y="1.67" class="l">1,</text><text x="3.006" y="1.67" class="l">serverValue:9}]</text><text x="19.038" y="1.67" class="l">to</text><text x="22.044" y="1.67" class="l">localhost:27017</text></symbol><symbol id="11"><text y="1.67" class="g">14:54:52</text><text x="9.018" y="1.67" class="h">INFO</text><text x="15.03" y="1.67" class="i">[</text><text x="16.032" y="1.67" class="j">or.mo.dr.connection</text><text x="35.07" y="1.67" class="i">]</text><text x="37.074" y="1.67" class="i">(</text><text x="38.076" y="1.67" class="k">cluster-ClusterId{value=&apos;5f10946c68a2c70e4eb54dcb&apos;,</text><text x="90.18" y="1.67" class="k">description=&apos;null&apos;}-localhost:27017</text><text x="125.25" y="1.67" class="i">)</text><text x="127.254" y="1.67" class="l">Opened</text><text x="134.268" y="1.67" class="l">connection</text><text x="145.29" y="1.67" class="l">[connectionId{localValue:</text></symbol><symbol id="12"><text y="1.67" class="l">2,</text><text x="3.006" y="1.67" class="l">serverValue:10}]</text><text x="20.04" y="1.67" class="l">to</text><text x="23.046" y="1.67" class="l">localhost:27017</text></symbol><symbol id="13"><text y="1.67" class="g">14:54:52</text><text x="9.018" y="1.67" class="h">INFO</text><text x="15.03" y="1.67" class="i">[</text><text x="16.032" y="1.67" class="j">or.mo.dr.cluster</text><text x="32.064" y="1.67" class="i">]</text><text x="34.068" y="1.67" class="i">(</text><text x="35.07" y="1.67" class="k">cluster-ClusterId{value=&apos;5f10946c68a2c70e4eb54dca&apos;,</text><text x="87.174" y="1.67" class="k">description=&apos;null&apos;}-localhost:27017</text><text x="122.244" y="1.67" class="i">)</text><text x="124.248" y="1.67" class="l">Monitor</text><text x="132.264" y="1.67" class="l">thread</text><text x="139.278" y="1.67" class="l">successfully</text><text x="152.304" y="1.67" class="l">connected</text><text x="162.324" y="1.67" class="l">to</text><text x="165.33" y="1.67" class="l">serve</text></symbol><symbol id="14"><text y="1.67" class="l">r</text><text x="2.004" y="1.67" class="l">with</text><text x="7.014" y="1.67" class="l">description</text><text x="19.038" y="1.67" class="l">ServerDescription{address=localhost:27017,</text><text x="62.124" y="1.67" class="l">type=STANDALONE,</text><text x="79.158" y="1.67" class="l">state=CONNECTED,</text><text x="96.192" y="1.67" class="l">ok=true,</text><text x="105.21" y="1.67" class="l">minWireVersion=0,</text><text x="123.246" y="1.67" class="l">maxWireVersion=8,</text><text x="141.282" y="1.67" class="l">maxDocumentSize=16777216,</text><text x="167.334" y="1.67" class="l">log</text></symbol><symbol id="15"><text y="1.67" class="l">icalSessionTimeoutMinutes=30,</text><text x="30.06" y="1.67" class="l">roundTripTimeNanos=179957}</text></symbol><symbol id="16"><text y="1.67" class="g">14:54:52</text><text x="9.018" y="1.67" class="h">INFO</text><text x="15.03" y="1.67" class="i">[</text><text x="16.032" y="1.67" class="j">or.mo.dr.cluster</text><text x="32.064" y="1.67" class="i">]</text><text x="34.068" y="1.67" class="i">(</text><text x="35.07" y="1.67" class="k">cluster-ClusterId{value=&apos;5f10946c68a2c70e4eb54dcb&apos;,</text><text x="87.174" y="1.67" class="k">description=&apos;null&apos;}-localhost:27017</text><text x="122.244" y="1.67" class="i">)</text><text x="124.248" y="1.67" class="l">Monitor</text><text x="132.264" y="1.67" class="l">thread</text><text x="139.278" y="1.67" class="l">successfully</text><text x="152.304" y="1.67" class="l">connected</text><text x="162.324" y="1.67" class="l">to</text><text x="165.33" y="1.67" class="l">serve</text></symbol><symbol id="17"><text y="1.67" class="l">icalSessionTimeoutMinutes=30,</text><text x="30.06" y="1.67" class="l">roundTripTimeNanos=222283}</text></symbol><symbol id="18"><text y="1.67" class="g">14:54:52</text><text x="9.018" y="1.67" class="h">INFO</text><text x="15.03" y="1.67" class="i">[</text><text x="16.032" y="1.67" class="j">io.quarkus</text><text x="26.052" y="1.67" class="i">]</text><text x="28.056" y="1.67" class="i">(</text><text x="29.058" y="1.67" class="k">main</text><text x="33.066" y="1.67" class="i">)</text><text x="35.07" y="1.67" class="m">b2w-game-app-backend-quarkus</text><text x="64.128" y="1.67" class="m">1.0.0</text><text x="70.14" y="1.67" class="m">native</text><text x="77.154" y="1.67" class="f">(powered</text><text x="86.172" y="1.67" class="f">by</text><text x="89.178" y="1.67" class="f">Quarkus</text><text x="97.194" y="1.67" class="m">1.6.0.Final</text><text x="108.216" y="1.67" class="f">)</text><text x="110.22" y="1.67" class="f">started</text><text x="118.236" y="1.67" class="f">in</text><text x="121.242" y="1.67" class="m">0.011</text><text x="126.252" y="1.67" class="f">s.</text><text x="129.258" y="1.67" class="m">Listening</text><text x="139.278" y="1.67" class="m">on:</text><text x="143.286" y="1.67" class="m">http://0.0.0.0:8080</text></symbol><symbol id="19"><text y="1.67" class="g">14:54:52</text><text x="9.018" y="1.67" class="h">INFO</text><text x="15.03" y="1.67" class="i">[</text><text x="16.032" y="1.67" class="j">io.quarkus</text><text x="26.052" y="1.67" class="i">]</text><text x="28.056" y="1.67" class="i">(</text><text x="29.058" y="1.67" class="k">main</text><text x="33.066" y="1.67" class="i">)</text><text x="35.07" y="1.67" class="f">Profile</text><text x="43.086" y="1.67" class="m">prod</text><text x="48.096" y="1.67" class="f">activated.</text></symbol><symbol id="20"><text y="1.67" class="g">14:54:52</text><text x="9.018" y="1.67" class="h">INFO</text><text x="15.03" y="1.67" class="i">[</text><text x="16.032" y="1.67" class="j">io.quarkus</text><text x="26.052" y="1.67" class="i">]</text><text x="28.056" y="1.67" class="i">(</text><text x="29.058" y="1.67" class="k">main</text><text x="33.066" y="1.67" class="i">)</text><text x="35.07" y="1.67" class="f">Installed</text><text x="45.09" y="1.67" class="f">features:</text><text x="55.11" y="1.67" class="f">[</text><text x="56.112" y="1.67" class="m">cdi,</text><text x="61.122" y="1.67" class="m">mongodb-client,</text><text x="77.154" y="1.67" class="m">mongodb-panache,</text><text x="94.188" y="1.67" class="m">mutiny,</text><text x="102.204" y="1.67" class="m">rest-client,</text><text x="115.23" y="1.67" class="m">resteasy,</text><text x="125.25" y="1.67" class="m">resteasy-jsonb,</text><text x="141.282" y="1.67" class="m">smallrye-context-propagation</text><text x="169.338" y="1.67" class="f">]</text></symbol><symbol id="a"><path fill="transparent" d="M0 0h170v39H0z"/></symbol><symbol id="b"><path fill="#6f7683" d="M0 0h1.102v2.171H0z"/></symbol></defs><path class="a" d="M0 0h170v84.669H0z"/><g style="animation-duration:4.355655s;animation-iteration-count:infinite;animation-name:p;animation-timing-function:steps(1,end)"><svg width="2210"><svg><use xlink:href="#a"/><use xlink:href="#b" x="-.004"/></svg><svg x="170"><use xlink:href="#a"/><use xlink:href="#b" x="-.004" y="2.146"/><use xlink:href="#1"/></svg><svg x="340"><use xlink:href="#a"/><use xlink:href="#b" x="-.004" y="4.317"/><use xlink:href="#1"/><use xlink:href="#2" y="2.171"/></svg><svg x="510"><use xlink:href="#a"/><use xlink:href="#b" x="-.004" y="17.343"/><use xlink:href="#1"/><use xlink:href="#2" y="2.171"/><use xlink:href="#3" y="4.342"/><use xlink:href="#4" y="6.513"/><use xlink:href="#5" y="8.684"/><use xlink:href="#6" y="10.855"/><use xlink:href="#7" y="13.026"/><use xlink:href="#8" y="15.197"/></svg><svg x="680"><use xlink:href="#a"/><use xlink:href="#b" x="-.004" y="21.685"/><use xlink:href="#1"/><use xlink:href="#2" y="2.171"/><use xlink:href="#3" y="4.342"/><use xlink:href="#4" y="6.513"/><use xlink:href="#5" y="8.684"/><use xlink:href="#6" y="10.855"/><use xlink:href="#7" y="13.026"/><use xlink:href="#8" y="15.197"/><use xlink:href="#7" y="17.368"/><use xlink:href="#8" y="19.539"/></svg><svg x="850"><use xlink:href="#a"/><use xlink:href="#b" x="-.004" y="26.027"/><use xlink:href="#1"/><use xlink:href="#2" y="2.171"/><use xlink:href="#3" y="4.342"/><use xlink:href="#4" y="6.513"/><use xlink:href="#5" y="8.684"/><use xlink:href="#6" y="10.855"/><use xlink:href="#7" y="13.026"/><use xlink:href="#8" y="15.197"/><use xlink:href="#7" y="17.368"/><use xlink:href="#8" y="19.539"/><use xlink:href="#9" y="21.71"/><use xlink:href="#10" y="23.881"/></svg><svg x="1020"><use xlink:href="#a"/><use xlink:href="#b" x="-.004" y="30.369"/><use xlink:href="#1"/><use xlink:href="#2" y="2.171"/><use xlink:href="#3" y="4.342"/><use xlink:href="#4" y="6.513"/><use xlink:href="#5" y="8.684"/><use xlink:href="#6" y="10.855"/><use xlink:href="#7" y="13.026"/><use xlink:href="#8" y="15.197"/><use xlink:href="#7" y="17.368"/><use xlink:href="#8" y="19.539"/><use xlink:href="#9" y="21.71"/><use xlink:href="#10" y="23.881"/><use xlink:href="#11" y="26.052"/><use xlink:href="#12" y="28.223"/></svg><svg x="1190"><use xlink:href="#a"/><use xlink:href="#b" x="-.004" y="36.882"/><use xlink:href="#1"/><use xlink:href="#2" y="2.171"/><use xlink:href="#3" y="4.342"/><use xlink:href="#4" y="6.513"/><use xlink:href="#5" y="8.684"/><use xlink:href="#6" y="10.855"/><use xlink:href="#7" y="13.026"/><use xlink:href="#8" y="15.197"/><use xlink:href="#7" y="17.368"/><use xlink:href="#8" y="19.539"/><use xlink:href="#9" y="21.71"/><use xlink:href="#10" y="23.881"/><use xlink:href="#11" y="26.052"/><use xlink:href="#12" y="28.223"/><use xlink:href="#13" y="30.394"/><use xlink:href="#14" y="32.565"/><use xlink:href="#15" y="34.736"/></svg><svg x="1360"><use xlink:href="#a"/><use xlink:href="#b" x="-.004" y="43.395"/><use xlink:href="#1"/><use xlink:href="#2" y="2.171"/><use xlink:href="#3" y="4.342"/><use xlink:href="#4" y="6.513"/><use xlink:href="#5" y="8.684"/><use xlink:href="#6" y="10.855"/><use xlink:href="#7" y="13.026"/><use xlink:href="#8" y="15.197"/><use xlink:href="#7" y="17.368"/><use xlink:href="#8" y="19.539"/><use xlink:href="#9" y="21.71"/><use xlink:href="#10" y="23.881"/><use xlink:href="#11" y="26.052"/><use xlink:href="#12" y="28.223"/><use xlink:href="#13" y="30.394"/><use xlink:href="#14" y="32.565"/><use xlink:href="#15" y="34.736"/><use xlink:href="#16" y="36.907"/><use xlink:href="#14" y="39.078"/><use xlink:href="#17" y="41.249"/></svg><svg x="1530"><use xlink:href="#a"/><use xlink:href="#b" x="-.004" y="45.566"/><use xlink:href="#1"/><use xlink:href="#2" y="2.171"/><use xlink:href="#3" y="4.342"/><use xlink:href="#4" y="6.513"/><use xlink:href="#5" y="8.684"/><use xlink:href="#6" y="10.855"/><use xlink:href="#7" y="13.026"/><use xlink:href="#8" y="15.197"/><use xlink:href="#7" y="17.368"/><use xlink:href="#8" y="19.539"/><use xlink:href="#9" y="21.71"/><use xlink:href="#10" y="23.881"/><use xlink:href="#11" y="26.052"/><use xlink:href="#12" y="28.223"/><use xlink:href="#13" y="30.394"/><use xlink:href="#14" y="32.565"/><use xlink:href="#15" y="34.736"/><use xlink:href="#16" y="36.907"/><use xlink:href="#14" y="39.078"/><use xlink:href="#17" y="41.249"/><use xlink:href="#18" y="43.42"/></svg><svg x="1700"><use xlink:href="#a"/><use xlink:href="#b" x="-.004" y="49.908"/><use xlink:href="#1"/><use xlink:href="#2" y="2.171"/><use xlink:href="#3" y="4.342"/><use xlink:href="#4" y="6.513"/><use xlink:href="#5" y="8.684"/><use xlink:href="#6" y="10.855"/><use xlink:href="#7" y="13.026"/><use xlink:href="#8" y="15.197"/><use xlink:href="#7" y="17.368"/><use xlink:href="#8" y="19.539"/><use xlink:href="#9" y="21.71"/><use xlink:href="#10" y="23.881"/><use xlink:href="#11" y="26.052"/><use xlink:href="#12" y="28.223"/><use xlink:href="#13" y="30.394"/><use xlink:href="#14" y="32.565"/><use xlink:href="#15" y="34.736"/><use xlink:href="#16" y="36.907"/><use xlink:href="#14" y="39.078"/><use xlink:href="#17" y="41.249"/><use xlink:href="#18" y="43.42"/><use xlink:href="#19" y="45.591"/><use xlink:href="#20" y="47.762"/></svg><svg x="1870"><use xlink:href="#a"/><use xlink:href="#b" x="1.996" y="49.908"/><use xlink:href="#1"/><use xlink:href="#2" y="2.171"/><use xlink:href="#3" y="4.342"/><use xlink:href="#4" y="6.513"/><use xlink:href="#5" y="8.684"/><use xlink:href="#6" y="10.855"/><use xlink:href="#7" y="13.026"/><use xlink:href="#8" y="15.197"/><use xlink:href="#7" y="17.368"/><use xlink:href="#8" y="19.539"/><use xlink:href="#9" y="21.71"/><use xlink:href="#10" y="23.881"/><use xlink:href="#11" y="26.052"/><use xlink:href="#12" y="28.223"/><use xlink:href="#13" y="30.394"/><use xlink:href="#14" y="32.565"/><use xlink:href="#15" y="34.736"/><use xlink:href="#16" y="36.907"/><use xlink:href="#14" y="39.078"/><use xlink:href="#17" y="41.249"/><use xlink:href="#18" y="43.42"/><use xlink:href="#19" y="45.591"/><use xlink:href="#20" y="47.762"/><text y="51.603" class="f">^C</text></svg><svg x="2040"><use xlink:href="#a"/><use xlink:href="#b" x="-.004" y="52.079"/><use xlink:href="#1"/><use xlink:href="#2" y="2.171"/><use xlink:href="#3" y="4.342"/><use xlink:href="#4" y="6.513"/><use xlink:href="#5" y="8.684"/><use xlink:href="#6" y="10.855"/><use xlink:href="#7" y="13.026"/><use xlink:href="#8" y="15.197"/><use xlink:href="#7" y="17.368"/><use xlink:href="#8" y="19.539"/><use xlink:href="#9" y="21.71"/><use xlink:href="#10" y="23.881"/><use xlink:href="#11" y="26.052"/><use xlink:href="#12" y="28.223"/><use xlink:href="#13" y="30.394"/><use xlink:href="#14" y="32.565"/><use xlink:href="#15" y="34.736"/><use xlink:href="#16" y="36.907"/><use xlink:href="#14" y="39.078"/><use xlink:href="#17" y="41.249"/><use xlink:href="#18" y="43.42"/><use xlink:href="#19" y="45.591"/><use xlink:href="#20" y="47.762"/><text y="51.603" class="f">^C</text><text x="2.004" y="51.603" class="g">14:54:57</text><text x="11.022" y="51.603" class="h">INFO</text><text x="17.034" y="51.603" class="i">[</text><text x="18.036" y="51.603" class="j">io.quarkus</text><text x="28.056" y="51.603" class="i">]</text><text x="30.06" y="51.603" class="i">(</text><text x="31.062" y="51.603" class="k">main</text><text x="35.07" y="51.603" class="i">)</text><text x="37.074" y="51.603" class="m">b2w-game-app-backend-quarkus</text><text x="66.132" y="51.603" class="f">stopped</text><text x="74.148" y="51.603" class="f">in</text><text x="77.154" y="51.603" class="m">0.005</text><text x="82.164" y="51.603" class="f">s</text></svg></svg></g></g></svg></svg>